<?xml version="1.0" encoding="UTF-8"?>
<svg version="1.1" xmlns="http://www.w3.org/2000/svg" width="512" height="512">
<path d="M0 0 C2.02639181 0.03442839 4.04843519 0.0205956 6.07495117 0.0012207 C13.15583608 0.05408943 18.32020554 0.11466993 23.96362305 4.59692383 C28.49542046 10.44055734 29.18859927 15.0666298 29.27612305 22.28442383 C29.30512695 23.06237305 29.33413086 23.84032227 29.36401367 24.6418457 C29.43947549 31.6017469 27.51293008 36.82910476 22.77612305 41.97192383 C19.96362305 43.59692383 19.96362305 43.59692383 10.96362305 45.59692383 C11.45862305 65.89192383 11.45862305 65.89192383 11.96362305 86.59692383 C15.26362305 84.94692383 18.56362305 83.29692383 21.96362305 81.59692383 C27.17324984 79.96405573 31.57660787 79.37246486 36.96362305 79.59692383 C36.88112305 78.48317383 36.79862305 77.36942383 36.71362305 76.22192383 C36.7931858 67.18359518 41.13107515 60.52422498 47.2331543 54.16333008 C57.13000323 44.8611416 68.26054846 37.42589587 79.96362305 30.59692383 C80.57286621 30.24001465 81.18210937 29.88310547 81.80981445 29.51538086 C118.83752906 8.11108968 162.22483391 0.13419303 204.52612305 0.28442383 C205.58910614 0.28624664 206.65208923 0.28806946 207.74728394 0.28994751 C223.03223416 0.33412575 237.91283028 0.70888476 252.96362305 3.59692383 C253.85452637 3.75257812 254.74542969 3.90823242 255.66333008 4.06860352 C293.5297269 10.74973217 345.32260101 27.96285486 368.72143555 61.08520508 C372.36945098 67.45359773 373.0845531 72.34112051 372.96362305 79.59692383 C373.85049805 79.51442383 374.73737305 79.43192383 375.65112305 79.34692383 C383.55241689 79.33076576 391.32381612 82.61303967 397.96362305 86.59692383 C398.29362305 73.06692383 398.62362305 59.53692383 398.96362305 45.59692383 C395.99362305 44.93692383 393.02362305 44.27692383 389.96362305 43.59692383 C385.07645616 40.77322741 382.90108455 36.75568672 380.96362305 31.59692383 C380.43509244 28.57149564 380.40086153 25.66177782 380.46362305 22.59692383 C380.4481543 21.8415332 380.43268555 21.08614258 380.41674805 20.30786133 C380.46104527 13.86261548 381.9611706 8.73752001 386.48120117 4.00952148 C392.28218198 -0.42958597 398.90182275 -0.16642968 405.94506836 -0.05493164 C407.96097663 -0.02811138 409.97132153 -0.05475978 411.98706055 -0.08666992 C424.17264441 -0.02586362 424.17264441 -0.02586362 429.44604492 4.00952148 C434.63329585 9.43543937 435.61257316 15.32319322 435.46362305 22.59692383 C435.4790918 23.35231445 435.49456055 24.10770508 435.51049805 24.88598633 C435.46388015 31.66889104 433.38313499 36.97002515 428.77612305 41.97192383 C426.10628234 43.51449846 424.26135133 44.08068399 421.2878418 44.69848633 C420.47790771 44.86944824 419.66797363 45.04041016 418.83349609 45.21655273 C418.21643799 45.3420752 417.59937988 45.46759766 416.96362305 45.59692383 C416.97250549 46.88572449 416.98138794 48.17452515 416.99053955 49.50238037 C417.07183665 61.6835612 417.13168975 73.86468655 417.17087173 86.04607773 C417.19169319 92.3077709 417.21991146 98.569244 417.26538086 104.83081055 C417.30903251 110.88032426 417.33280104 116.92962707 417.34313202 122.97928619 C417.35048876 125.28042162 417.3648543 127.58154628 417.38654327 129.88259125 C417.54248656 147.12200916 416.91924213 160.10689374 404.96362305 173.59692383 C396.12895864 182.29997313 385.2495179 186.33089067 372.96362305 186.59692383 C373.04612305 187.71067383 373.12862305 188.82442383 373.21362305 189.97192383 C373.17064047 198.08130292 369.53627582 204.81632799 364.05737305 210.60864258 C359.90448988 214.552332 355.50604423 218.11304382 350.96362305 221.59692383 C349.94655273 222.37938477 348.92948242 223.1618457 347.8815918 223.96801758 C337.83467063 231.49450425 326.93377238 237.53240669 315.96362305 243.59692383 C316.25084229 244.1305957 316.53806152 244.66426758 316.83398438 245.21411133 C318.1531961 247.67231604 319.46468757 250.13456237 320.77612305 252.59692383 C321.22793945 253.43610352 321.67975586 254.2752832 322.14526367 255.13989258 C328.96362305 267.98030658 328.96362305 267.98030658 328.96362305 273.59692383 C330.23367188 273.58121338 331.5037207 273.56550293 332.81225586 273.54931641 C337.57586186 273.49454627 342.33944069 273.46040426 347.10327148 273.43212891 C349.15540261 273.41714867 351.20750232 273.39675736 353.25952148 273.37060547 C370.33020549 273.15867633 386.51184301 273.51347046 399.77612305 285.84692383 C405.68646315 292.36237018 409.0905399 299.450203 411.7800293 307.73754883 C412.03716705 308.52069962 412.29430481 309.3038504 412.55923462 310.11073303 C415.20513043 318.23079358 417.71153617 326.39132916 420.1159668 334.5859375 C420.60200468 336.23271923 421.09463792 337.87756726 421.59350586 339.52050781 C428.67389817 362.84860971 428.67389817 362.84860971 424.02612305 371.90942383 C420.90116853 377.51648508 416.08739911 381.29172868 409.9519043 383.23364258 C403.29036544 384.45078033 396.90336182 383.97893835 390.96362305 380.59692383 C380.15862151 372.85701457 378.39193769 357.52167613 375.1394043 345.44848633 C372.66986617 336.75098949 369.74662589 328.90632922 362.02612305 323.65942383 C354.35599515 319.46392154 346.54183136 319.08710716 337.96362305 318.59692383 C337.99842773 319.58047852 338.03323242 320.5640332 338.0690918 321.57739258 C338.64631879 345.5279175 333.5486124 368.4640804 323.9284668 390.32739258 C323.61312988 391.04628662 323.29779297 391.76518066 322.97290039 392.50585938 C321.96362305 394.59692383 321.96362305 394.59692383 320.73950195 396.52587891 C318.21069727 400.63557952 317.71604262 403.1375264 318.74487305 407.89770508 C319.29421397 409.90820211 319.86864308 411.91195728 320.46362305 413.90942383 C322.95912845 423.17666287 324.91376203 432.34432272 326.27612305 441.84692383 C326.51395508 443.46787964 326.51395508 443.46787964 326.7565918 445.12158203 C328.370373 456.64012234 329.16264285 468.15648669 329.27612305 479.78442383 C329.30512695 480.78666992 329.33413086 481.78891602 329.36401367 482.8215332 C329.43751621 491.52310335 327.68840371 498.92175352 321.71362305 505.47192383 C314.39033677 511.97980218 308.46690196 513.27980779 298.5925293 512.97583008 C291.20418883 512.20438872 285.52926408 509.3403895 280.57421875 503.7578125 C274.11814924 495.09589478 274.18007212 484.18481603 273.77612305 473.84692383 C273.67469565 471.63875984 273.56838883 469.4308984 273.4596405 467.2230835 C273.36386055 465.23121769 273.28017923 463.23878074 273.19726562 461.24633789 C272.96620287 457.63721975 272.52356167 454.16649659 271.96362305 450.59692383 C271.21024658 450.96660278 271.21024658 450.96660278 270.44165039 451.34375 C235.2401643 468.53526674 200.14058272 474.78150151 162.21362305 461.84692383 C153.79147198 458.81295604 145.86101919 454.78477589 137.96362305 450.59692383 C136.59419617 461.36620318 135.65889419 472.03208847 135.48144531 482.89428711 C135.20217697 492.55715029 132.97320613 499.61560552 126.1784668 506.64379883 C119.32522614 512.68722092 112.4699176 513.25389948 103.4909668 512.97583008 C96.32372194 512.2059267 91.43404765 508.99802914 86.60864258 503.71459961 C81.15881237 496.69889358 80.35945699 488.88522401 80.58862305 480.28442383 C80.60441406 479.23899414 80.62020508 478.19356445 80.63647461 477.11645508 C80.94422989 462.79499805 82.50023577 448.73090631 84.77612305 434.59692383 C85.01782227 433.09162109 85.01782227 433.09162109 85.2644043 431.5559082 C86.11257181 426.58577508 87.13650826 421.79436518 88.6159668 416.97192383 C92.14120383 406.09632913 92.14120383 406.09632913 89.7487793 395.31396484 C88.27738887 392.67717822 86.70066772 390.11662634 85.09594727 387.55932617 C83.18988654 384.25598073 81.94508879 380.75861945 80.71362305 377.15942383 C80.47248779 376.45470947 80.23135254 375.74999512 79.98291016 375.02392578 C73.85607129 356.49103184 71.5299355 338.064676 71.96362305 318.59692383 C57.05325822 319.7005204 57.05325822 319.7005204 44.77612305 327.53442383 C39.61510658 334.19379992 37.53324774 342.51421245 35.2722168 350.49536133 C34.97307373 351.54925049 34.67393066 352.60313965 34.36572266 353.68896484 C33.77579599 355.79497911 33.19920884 357.9047874 32.63769531 360.01855469 C30.13387585 369.0775075 26.81187753 376.15119622 18.96362305 381.59692383 C13.06307028 384.41309674 6.52117569 384.72173827 0.30737305 382.75708008 C-5.82818658 380.01271079 -9.72101742 376.44467976 -13.03637695 370.59692383 C-16.1074956 361.3835679 -13.69030647 351.50599297 -10.9309082 342.52270508 C-10.6098259 341.43281784 -10.28874359 340.3429306 -9.95793152 339.22001648 C-9.2811202 336.93616833 -8.59582028 334.65481974 -7.90234375 332.37597656 C-6.85001324 328.91316291 -5.82694311 325.44269728 -4.80786133 321.9699707 C-4.14224803 319.73704005 -3.47498564 317.50460018 -2.8059082 315.27270508 C-2.50360794 314.2495369 -2.20130768 313.22636871 -1.8898468 312.17219543 C2.3930501 298.20196312 8.97503769 286.65061127 21.69799805 278.77661133 C25.31696962 276.89225027 29.0145196 275.59861248 32.96362305 274.59692383 C33.96123657 274.33564697 33.96123657 274.33564697 34.97900391 274.0690918 C39.27669676 273.38919503 43.51409807 273.47475758 47.8581543 273.49926758 C48.80550949 273.50068253 49.75286469 273.50209747 50.72892761 273.5035553 C53.744692 273.50913771 56.76038123 273.52168701 59.77612305 273.53442383 C61.8249501 273.5394411 63.87377831 273.54400361 65.92260742 273.5480957 C70.93630811 273.55910139 75.94995285 273.57635395 80.96362305 273.59692383 C81.13365845 272.28353027 81.13365845 272.28353027 81.30712891 270.94360352 C81.96417035 267.59413379 82.95727684 265.09779438 84.4675293 262.05004883 C84.9605957 261.04071289 85.45366211 260.03137695 85.96166992 258.99145508 C86.47793945 257.95375977 86.99420898 256.91606445 87.52612305 255.84692383 C88.55164354 253.77046722 89.57395284 251.69242054 90.5925293 249.61254883 C91.04700439 248.69763672 91.50147949 247.78272461 91.96972656 246.84008789 C93.09865468 244.70108069 93.09865468 244.70108069 92.96362305 242.59692383 C92.43631592 242.32130615 91.90900879 242.04568848 91.36572266 241.76171875 C79.52132442 235.5265396 68.41514293 228.97409625 57.96362305 220.59692383 C57.33133789 220.09483398 56.69905273 219.59274414 56.04760742 219.07543945 C42.18301462 207.96983094 42.18301462 207.96983094 38.96362305 200.59692383 C38.53049805 199.60692383 38.09737305 198.61692383 37.65112305 197.59692383 C36.78305474 193.8089894 36.82977937 190.47839053 36.96362305 186.59692383 C36.3087793 186.58274414 35.65393555 186.56856445 34.97924805 186.55395508 C23.44293381 185.9510686 13.23907071 181.74908735 4.96362305 173.59692383 C-7.85328163 159.13506882 -7.600114 144.82224737 -7.42700195 126.45629883 C-7.41953065 124.11932868 -7.41384193 121.78235222 -7.40985107 119.44537354 C-7.39466491 113.32971541 -7.35544392 107.21444441 -7.31103516 101.09893799 C-7.26993048 94.8444136 -7.25180772 88.58982595 -7.23168945 82.33520508 C-7.18894259 70.08894234 -7.12077698 57.84296543 -7.03637695 45.59692383 C-7.65343506 45.47140137 -8.27049316 45.34587891 -8.90625 45.21655273 C-9.71618408 45.04559082 -10.52611816 44.87462891 -11.3605957 44.69848633 C-12.56462036 44.44832764 -12.56462036 44.44832764 -13.79296875 44.19311523 C-17.67896273 43.1604025 -19.94367737 41.29612524 -22.10742188 37.93139648 C-24.9195273 32.71071646 -25.65695594 28.4851976 -25.53637695 22.59692383 C-25.5518457 21.8415332 -25.56731445 21.08614258 -25.58325195 20.30786133 C-25.53893436 13.85965146 -24.03505158 8.74246443 -19.52099609 4.00732422 C-13.70432685 -0.45357406 -7.06067919 -0.13286455 0 0 Z " fill="#3B96D1" transform="translate(51.036376953125,-0.596923828125)"/>
<path d="M0 0 C5.16762779 1.69303437 10.29939521 3.45751556 15.4140625 5.3046875 C30.43389404 10.68736676 45.25365437 15.20991432 61 18 C61.86898926 18.15549316 62.73797852 18.31098633 63.63330078 18.47119141 C77.81458183 20.96087133 91.85792694 22.08543934 106.25 22.5625 C112.56125 22.7790625 112.56125 22.7790625 119 23 C119 40.49 119 57.98 119 76 C112.67714844 76.02126953 112.67714844 76.02126953 106.2265625 76.04296875 C102.84095229 76.06825746 99.4554656 76.09849181 96.06993103 76.13204193 C92.50958895 76.16598056 88.94967222 76.19143925 85.38916016 76.19555664 C81.29278675 76.20069965 77.1976711 76.24596063 73.1015625 76.29296875 C71.8407486 76.2890361 70.57993469 76.28510345 69.28091431 76.28105164 C60.75727201 76.42052032 53.32505132 77.65203051 47.09658813 83.91349792 C42.54455193 89.36287449 40.37464059 95.50335451 39.625 102.5 C40.61474593 111.73762871 44.13538579 117.70961207 51 124 C57.51983008 128.09087378 63.8455651 128.15400981 71.31323242 128.17700195 C72.24399597 128.18357315 73.17475952 128.19014435 74.13372803 128.19691467 C77.20764251 128.21659096 80.28150824 128.22829803 83.35546875 128.23828125 C84.40856043 128.24235678 85.46165211 128.2464323 86.54665565 128.25063133 C92.12135241 128.2714685 97.69602472 128.28578008 103.27075195 128.29516602 C109.01269597 128.30622187 114.75425157 128.34061937 120.49605846 128.38033772 C124.92546788 128.40654905 129.35478538 128.41486191 133.78426552 128.41844749 C135.90004409 128.42330219 138.01581886 128.43488411 140.13152122 128.45348549 C143.10125441 128.47797158 146.06999059 128.47689447 149.03979492 128.4699707 C149.90300858 128.48278076 150.76622223 128.49559082 151.65559387 128.50878906 C159.06408645 128.44625885 165.83225936 126.56214316 171.65625 121.8515625 C176.47623585 116.05574738 176.47623585 116.05574738 179 109 C179.33 109.66 179.66 110.32 180 111 C199.8 111 219.6 111 240 111 C237.64682867 125.11902801 237.64682867 125.11902801 235.375 131.75 C235.12210205 132.50224854 234.8692041 133.25449707 234.60864258 134.02954102 C232.19573833 140.93314824 229.04706665 147.38184373 225.63671875 153.83984375 C223.37565191 158.20548354 222.81843936 160.14129831 224.07421875 164.8125 C224.32792236 165.79250977 224.58162598 166.77251953 224.84301758 167.78222656 C225.26103638 169.37502441 225.26103638 169.37502441 225.6875 171 C228.0421991 180.36395623 229.92016092 189.69486335 231.3125 199.25 C231.47129639 200.33023438 231.63009277 201.41046875 231.79370117 202.5234375 C233.40435306 214.04300376 234.19901283 225.55884754 234.3125 237.1875 C234.34150391 238.18974609 234.37050781 239.19199219 234.40039062 240.22460938 C234.47389317 248.92617952 232.72478066 256.32482969 226.75 262.875 C219.42671372 269.38287835 213.50327892 270.68288396 203.62890625 270.37890625 C196.24056578 269.60746489 190.56564103 266.74346568 185.6105957 261.16088867 C179.15452619 252.49897095 179.21644908 241.5878922 178.8125 231.25 C178.7110726 229.04183601 178.60476579 226.83397457 178.49601746 224.62615967 C178.40023751 222.63429386 178.31655618 220.64185691 178.23364258 218.64941406 C178.00257982 215.04029592 177.55993862 211.56957276 177 208 C176.24662354 208.36967896 176.24662354 208.36967896 175.47802734 208.74682617 C140.27654125 225.93834292 105.17695967 232.18457769 67.25 219.25 C58.82784894 216.21603221 50.89739614 212.18785206 43 208 C41.63057312 218.76927935 40.69527115 229.43516464 40.51782227 240.29736328 C40.23855392 249.96022646 38.00958308 257.01868169 31.21484375 264.046875 C24.3616031 270.09029709 17.50629455 270.65697566 8.52734375 270.37890625 C1.36009889 269.60900287 -3.52957539 266.40110531 -8.35498047 261.11767578 C-13.80481068 254.10196975 -14.60416606 246.28830018 -14.375 237.6875 C-14.35920898 236.64207031 -14.34341797 235.59664062 -14.32714844 234.51953125 C-14.01939316 220.19807422 -12.46338727 206.13398248 -10.1875 192 C-9.94580078 190.49469727 -9.94580078 190.49469727 -9.69921875 188.95898438 C-8.85105124 183.98885125 -7.82711479 179.19744135 -6.34765625 174.375 C-2.82241921 163.4994053 -2.82241921 163.4994053 -5.21484375 152.71704102 C-6.68623418 150.08025439 -8.26295533 147.51970251 -9.86767578 144.96240234 C-11.77373651 141.6590569 -13.01853425 138.16169563 -14.25 134.5625 C-14.49113525 133.85778564 -14.73227051 133.15307129 -14.98071289 132.42700195 C-21.10755176 113.89410802 -23.43368755 95.46775218 -23 76 C-37.91036483 77.10359657 -37.91036483 77.10359657 -50.1875 84.9375 C-55.34851647 91.59687609 -57.4303753 99.91728862 -59.69140625 107.8984375 C-59.99054932 108.95232666 -60.28969238 110.00621582 -60.59790039 111.09204102 C-61.18782706 113.19805528 -61.76441421 115.30786358 -62.32592773 117.42163086 C-64.8297472 126.48058367 -68.15174551 133.5542724 -76 139 C-81.90055277 141.81617291 -88.44244736 142.12481444 -94.65625 140.16015625 C-100.79180963 137.41578696 -104.68464047 133.84775593 -108 128 C-111.07111864 118.78664407 -108.65392952 108.90906914 -105.89453125 99.92578125 C-105.57344894 98.83589401 -105.25236664 97.74600677 -104.92155457 96.62309265 C-104.24474325 94.3392445 -103.55944333 92.05789591 -102.8659668 89.77905273 C-101.81363629 86.31623908 -100.79056615 82.84577345 -99.77148438 79.37304688 C-99.10587107 77.14011623 -98.43860869 74.90767635 -97.76953125 72.67578125 C-97.46723099 71.65261307 -97.16493073 70.62944489 -96.85346985 69.57527161 C-92.57057295 55.60503929 -85.98858536 44.05368744 -73.265625 36.1796875 C-69.64665343 34.29532644 -65.94910345 33.00168865 -62 32 C-61.33492432 31.82581543 -60.66984863 31.65163086 -59.98461914 31.47216797 C-55.68692628 30.7922712 -51.44952498 30.87783375 -47.10546875 30.90234375 C-46.15811356 30.9037587 -45.21075836 30.90517365 -44.23469543 30.90663147 C-41.21893105 30.91221389 -38.20324182 30.92476318 -35.1875 30.9375 C-33.13867295 30.94251727 -31.08984473 30.94707978 -29.04101562 30.95117188 C-24.02731494 30.96217757 -19.0136702 30.97943012 -14 31 C-13.88519287 30.1244043 -13.77038574 29.24880859 -13.65209961 28.34667969 C-13.00420516 25.02158153 -12.03164769 22.49502701 -10.56640625 19.453125 C-9.8403418 17.93912109 -9.8403418 17.93912109 -9.09960938 16.39453125 C-8.59236328 15.35683594 -8.08511719 14.31914062 -7.5625 13.25 C-7.05912109 12.19683594 -6.55574219 11.14367187 -6.03710938 10.05859375 C-2.2753979 2.2753979 -2.2753979 2.2753979 0 0 Z " fill="#4481C1" transform="translate(146,242)"/>
<path d="M0 0 C2.12281016 0.31393671 4.24865351 0.58833658 6.37695312 0.86230469 C35.67671737 4.91426047 68.74232815 16.09543165 91.08007812 36.30761719 C93.85386669 40.18393201 93.36807843 44.65591577 93.35473633 49.21948242 C93.35984726 50.11911713 93.36495819 51.01875183 93.370224 51.94564819 C93.38412305 54.9192368 93.38316301 57.89259371 93.38085938 60.86621094 C93.38474607 62.93359971 93.38908068 65.00098769 93.3938446 67.06837463 C93.40130744 71.40181059 93.40101501 75.73516508 93.39575195 80.06860352 C93.38995659 85.62157392 93.40688974 91.17421086 93.43009663 96.72712612 C93.44482874 100.99679006 93.44570638 105.26637358 93.4425869 109.53605843 C93.44310035 111.58338138 93.44834256 113.63070881 93.45839882 115.67800713 C93.47073594 118.54101099 93.46398785 121.40336397 93.45239258 124.26635742 C93.46003632 125.11171555 93.46768005 125.95707367 93.47555542 126.82804871 C93.43383394 131.48899414 93.08272153 134.51454972 90.08007812 138.30761719 C86.01801468 141.68547875 81.54468339 144.49204848 77.08007812 147.30761719 C76.47470215 147.68998535 75.86932617 148.07235352 75.24560547 148.46630859 C64.13715223 155.35643644 52.40121442 160.03471185 40.08007812 164.30761719 C39.34192871 164.56559082 38.6037793 164.82356445 37.84326172 165.08935547 C11.71979492 174.0934588 -16.46142428 176.17972508 -43.91992188 175.30761719 C-44.97590576 175.27643799 -44.97590576 175.27643799 -46.05322266 175.24462891 C-82.00750158 173.97764179 -125.99300754 162.39634733 -152.91992188 137.30761719 C-155.67941475 133.42585446 -155.2153389 128.97459162 -155.21044922 124.41162109 C-155.21716644 123.51359268 -155.22388367 122.61556427 -155.23080444 121.69032288 C-155.24980265 118.7215522 -155.25370955 115.75300737 -155.25585938 112.78417969 C-155.26228599 110.71918647 -155.26901425 108.65419417 -155.27603149 106.58920288 C-155.28800879 102.25996795 -155.29171184 97.93081284 -155.29052734 93.6015625 C-155.29032412 88.05757692 -155.31762781 82.51410377 -155.35207176 76.97023964 C-155.37432296 72.7048203 -155.37836543 68.43952463 -155.37730789 64.17405319 C-155.37966647 62.1303366 -155.38850442 60.08661672 -155.40397263 58.04295731 C-155.42359646 55.18240859 -155.41780863 52.32296941 -155.40576172 49.46240234 C-155.41700073 48.6206395 -155.42823975 47.77887665 -155.43981934 46.91160583 C-155.38274972 41.57141795 -154.46519224 38.54105147 -150.91992188 34.30761719 C-148.70348311 32.53615596 -146.60964721 31.0052704 -144.23242188 29.49511719 C-143.5759668 29.07061279 -142.91951172 28.6461084 -142.24316406 28.20874023 C-123.70616956 16.42738236 -104.31003404 8.99915768 -83.01635742 3.82226562 C-81.65553717 3.48820145 -80.29735748 3.1431169 -78.94262695 2.78515625 C-54.01743644 -3.76016075 -25.43667147 -3.76443737 0 0 Z " fill="#64DBB7" transform="translate(286.919921875,45.6923828125)"/>
<path d="M0 0 C2.47233618 1.8443449 3.3315903 3.64137964 4.65039062 6.42456055 C5.12927734 7.42874023 5.60816406 8.43291992 6.1015625 9.4675293 C6.58818359 10.52069336 7.07480469 11.57385742 7.57617188 12.65893555 C8.32350586 14.21547852 8.32350586 14.21547852 9.0859375 15.8034668 C11.40490731 20.73088433 13.16688329 24.97276205 13.88867188 30.40893555 C15.79374512 30.38536987 15.79374512 30.38536987 17.73730469 30.36132812 C22.50091069 30.30655799 27.26448952 30.27241597 32.02832031 30.24414062 C34.08045144 30.22916039 36.13255115 30.20876908 38.18457031 30.18261719 C55.25525432 29.97068805 71.43689184 30.32548218 84.70117188 42.65893555 C90.61151197 49.17438189 94.01558873 56.26221472 96.70507812 64.54956055 C96.96221588 65.33271133 97.21935364 66.11586212 97.48428345 66.92274475 C100.13017926 75.0428053 102.636585 83.20334088 105.04101562 91.39794922 C105.52705351 93.04473094 106.01968675 94.68957898 106.51855469 96.33251953 C113.598947 119.66062142 113.598947 119.66062142 108.95117188 128.72143555 C105.82621735 134.3284968 101.01244794 138.1037404 94.87695312 140.0456543 C88.21541427 141.26279205 81.82841064 140.79095007 75.88867188 137.40893555 C65.08367034 129.66902628 63.31698652 114.33368784 60.06445312 102.26049805 C57.594915 93.56300121 54.67167471 85.71834094 46.95117188 80.47143555 C39.28104398 76.27593326 31.46688019 75.89911888 22.88867188 75.40893555 C22.911875 76.45049805 22.93507813 77.49206055 22.95898438 78.56518555 C23.33710082 103.51207765 23.33710082 103.51207765 19.88867188 110.40893555 C19.15031097 110.38895004 18.41195007 110.36896454 17.6512146 110.34837341 C10.67809277 110.16771686 3.70532231 110.03085723 -3.26954079 109.942626 C-6.85535458 109.89573535 -10.43922863 109.83219867 -14.02392578 109.72998047 C-17.48652402 109.63186685 -20.94726296 109.57831678 -24.41114426 109.55504036 C-26.36925447 109.53042078 -28.32662018 109.46020546 -30.28359985 109.38926697 C-36.8000374 109.20767967 -36.8000374 109.20767967 -42.17401123 112.35379028 C-43.78826439 114.69585733 -43.78826439 114.69585733 -44.95126343 117.14149475 C-47.86251587 122.83177442 -52.97833084 125.624124 -58.8087635 127.76054764 C-62.78218136 128.87943745 -66.67756019 128.82595653 -70.78100586 128.79711914 C-71.71381378 128.8023761 -72.6466217 128.80763306 -73.60769653 128.81304932 C-76.67027879 128.82617919 -79.73233495 128.81753531 -82.79492188 128.80737305 C-84.93669229 128.80939596 -87.07846203 128.81230922 -89.2202301 128.81607056 C-93.70133037 128.82048457 -98.18225078 128.81409313 -102.66333008 128.80004883 C-108.3906841 128.78296803 -114.11761598 128.79279721 -119.84495449 128.81076622 C-124.26576381 128.82163777 -128.68647405 128.81814206 -133.10728645 128.81038284 C-135.21828321 128.80838962 -137.32928914 128.81080908 -139.44027519 128.8178215 C-142.39784233 128.82549035 -145.35473835 128.81375536 -148.31225586 128.79711914 C-149.17435165 128.80319183 -150.03644745 128.80926453 -150.92466736 128.81552124 C-159.92785136 128.7222976 -166.82881777 126.45393046 -173.38867188 120.2331543 C-178.50764276 114.81238467 -180.73875499 109.43272542 -181.42382812 102.03393555 C-180.72641702 93.94396672 -177.81138028 87.24894434 -172.11132812 81.40893555 C-166.6652395 77.25216715 -162.17046853 75.28092896 -155.26293945 75.29541016 C-153.46141167 75.29552345 -153.46141167 75.29552345 -151.62348938 75.29563904 C-149.67807503 75.30338097 -149.67807503 75.30338097 -147.69335938 75.3112793 C-146.35243279 75.31314477 -145.01150552 75.31456807 -143.670578 75.31556702 C-140.14423739 75.31938199 -136.61793808 75.32920356 -133.09161377 75.340271 C-129.49207122 75.35050705 -125.89252178 75.35512414 -122.29296875 75.36010742 C-115.23238542 75.37029585 -108.17191545 75.38987005 -101.11132812 75.40893555 C-101.11132812 57.91893555 -101.11132812 40.42893555 -101.11132812 22.40893555 C-94.61445313 21.79018555 -94.61445313 21.79018555 -87.98632812 21.15893555 C-60.77614189 18.39128134 -34.57783377 12.99219222 -9.36938477 2.078125 C-8.47340576 1.70131592 -7.57742676 1.32450684 -6.65429688 0.9362793 C-5.87078857 0.59330811 -5.08728027 0.25033691 -4.2800293 -0.10302734 C-2.11132812 -0.59106445 -2.11132812 -0.59106445 0 0 Z " fill="#4481C1" transform="translate(366.111328125,242.591064453125)"/>
<path d="M0 0 C0.495 0.99 0.495 0.99 1 2 C20.8 2 40.6 2 61 2 C58.64682867 16.11902801 58.64682867 16.11902801 56.375 22.75 C56.12210205 23.50224854 55.8692041 24.25449707 55.60864258 25.02954102 C53.19573833 31.93314824 50.04706665 38.38184373 46.63671875 44.83984375 C44.37565191 49.20548354 43.81843936 51.14129831 45.07421875 55.8125 C45.32792236 56.79250977 45.58162598 57.77251953 45.84301758 58.78222656 C46.12169678 59.8440918 46.40037598 60.90595703 46.6875 62 C49.0421991 71.36395623 50.92016092 80.69486335 52.3125 90.25 C52.55069458 91.87035156 52.55069458 91.87035156 52.79370117 93.5234375 C54.40435306 105.04300376 55.19901283 116.55884754 55.3125 128.1875 C55.35600586 129.69086914 55.35600586 129.69086914 55.40039062 131.22460938 C55.47389317 139.92617952 53.72478066 147.32482969 47.75 153.875 C40.42671372 160.38287835 34.50327892 161.68288396 24.62890625 161.37890625 C17.24056578 160.60746489 11.56564103 157.74346568 6.6105957 152.16088867 C0.15452619 143.49897095 0.21644908 132.5878922 -0.1875 122.25 C-0.2889274 120.04183601 -0.39523421 117.83397457 -0.50398254 115.62615967 C-0.59976249 113.63429386 -0.68344382 111.64185691 -0.76635742 109.64941406 C-0.99742018 106.04029592 -1.44006138 102.56957276 -2 99 C-2.50225098 99.24645264 -3.00450195 99.49290527 -3.52197266 99.74682617 C-21.21717121 108.38871423 -39.90087323 117 -60 117 C-60 84.99 -60 52.98 -60 20 C-46.8 19.67 -33.6 19.34 -20 19 C-10.7197298 15.28789192 -7.29371911 13.66265841 -2 6 C-0.46852459 2.68638416 -0.46852459 2.68638416 0 0 Z " fill="#4481C1" transform="translate(325,351)"/>
<path d="M0 0 C1.4852346 0.28228604 2.97088641 0.56238969 4.45703125 0.83984375 C30.82816978 6.07758659 56.6359112 17.74232702 78 34 C78.55292725 34.41991211 79.10585449 34.83982422 79.67553711 35.27246094 C82.82133117 37.76442707 84.98008155 40.05821893 86.8125 43.625 C87.21082031 44.38039062 87.60914063 45.13578125 88.01953125 45.9140625 C89.50823522 49.08126537 90.12667853 51.62920593 90.14717102 55.08985901 C90.15790398 56.33649071 90.15790398 56.33649071 90.16885376 57.60830688 C90.17154266 58.51688446 90.17423157 59.42546204 90.17700195 60.36157227 C90.18357315 61.32130447 90.19014435 62.28103668 90.19691467 63.26985168 C90.21665378 66.45203733 90.22831386 69.63417569 90.23828125 72.81640625 C90.24235678 73.90442976 90.2464323 74.99245327 90.25063133 76.11344719 C90.27149821 81.87616664 90.28579528 87.63886226 90.29516602 93.40161133 C90.3062103 99.34090402 90.34058586 105.27981998 90.38033772 111.21897984 C90.40654806 115.79594089 90.41486197 120.37281296 90.41844749 124.94984245 C90.42330478 127.13818839 90.43489415 129.32653058 90.45348549 131.51480293 C90.47796241 134.58772244 90.47689568 137.65967787 90.4699707 140.73266602 C90.48918579 142.07427795 90.48918579 142.07427795 90.50878906 143.44299316 C90.44773764 150.92362945 88.64203774 157.73630632 83.875 163.625 C82.92625 164.40875 81.9775 165.1925 81 166 C80.35804688 166.56847656 79.71609375 167.13695312 79.0546875 167.72265625 C59.69625798 184.22653769 35.22208116 193.41878807 11 200 C9.8538623 200.31493408 9.8538623 200.31493408 8.68457031 200.63623047 C-10.81184357 205.89413908 -30.55859067 207.56504384 -50.6875 207.4375 C-51.68381439 207.43512329 -52.68012878 207.43274658 -53.70663452 207.43029785 C-69.78207003 207.37053847 -85.23109806 206.33522599 -101 203 C-101.82612793 202.8345166 -102.65225586 202.6690332 -103.50341797 202.49853516 C-132.62831549 196.60628429 -167.29108109 184.0016113 -187.59765625 161.21484375 C-191.73000571 154.68826396 -192.43985511 148.65600584 -192.38818359 141.13085938 C-192.39344055 140.17693802 -192.39869751 139.22301666 -192.40411377 138.2401886 C-192.41724559 135.10787254 -192.40859976 131.97607063 -192.3984375 128.84375 C-192.40046019 126.65474348 -192.40337325 124.46573762 -192.40713501 122.2767334 C-192.41154914 117.6972815 -192.40515655 113.1180056 -192.39111328 108.53857422 C-192.37402212 102.68108866 -192.38386817 96.82401555 -192.40183067 90.9665451 C-192.41269305 86.44884151 -192.40921088 81.93123502 -192.4014473 77.41352844 C-192.39945208 75.2542567 -192.40188062 73.09497602 -192.40888596 70.93571472 C-192.41654075 67.91328722 -192.4048396 64.89151926 -192.38818359 61.86914062 C-192.39425629 60.98474808 -192.40032898 60.10035553 -192.40658569 59.18916321 C-192.32357262 51.02043005 -190.08078984 44.54693427 -185 38 C-167.45270362 22.4083565 -144.30773669 11.7406502 -122 5 C-121.28183105 4.78005371 -120.56366211 4.56010742 -119.82373047 4.33349609 C-82.25261276 -6.85982269 -38.27024074 -8.23199176 0 0 Z M-173 51 C-175.77496842 54.87480278 -175.28799688 59.34946987 -175.2746582 63.91186523 C-175.27976913 64.81149994 -175.28488007 65.71113464 -175.29014587 66.63803101 C-175.30404492 69.61161961 -175.30308489 72.58497653 -175.30078125 75.55859375 C-175.30466794 77.62598253 -175.30900256 79.69337051 -175.31376648 81.76075745 C-175.32122932 86.0941934 -175.32093688 90.42754789 -175.31567383 94.76098633 C-175.30987847 100.31395673 -175.32681161 105.86659367 -175.3500185 111.41950893 C-175.36475062 115.68917287 -175.36562826 119.95875639 -175.36250877 124.22844124 C-175.36302223 126.27576419 -175.36826443 128.32309162 -175.37832069 130.37038994 C-175.39065782 133.2333938 -175.38390973 136.09574678 -175.37231445 138.95874023 C-175.37995819 139.80409836 -175.38760193 140.64945648 -175.39547729 141.52043152 C-175.35376423 146.18043645 -175.00524344 149.20978678 -172 153 C-148.61643363 172.23876879 -119.29501499 181.67128204 -90 187 C-88.86304688 187.2165625 -87.72609375 187.433125 -86.5546875 187.65625 C-61.98785652 192.11103535 -36.56222749 190.54337778 -12 187 C-11.10474609 186.87141602 -10.20949219 186.74283203 -9.28710938 186.61035156 C17.5804717 182.52090177 50.82471057 171.27507967 71 152 C73.73847897 148.09462934 73.29542657 143.6758832 73.29052734 139.10400391 C73.29724457 138.20597549 73.30396179 137.30794708 73.31088257 136.38270569 C73.32988078 133.41393501 73.33378768 130.44539018 73.3359375 127.4765625 C73.34236412 125.41156928 73.34909238 123.34657699 73.35610962 121.28158569 C73.36808692 116.95235076 73.37178997 112.62319565 73.37060547 108.29394531 C73.37040225 102.74995974 73.39770593 97.20648659 73.43214989 91.66262245 C73.45440108 87.39720311 73.45844355 83.13190744 73.45738602 78.866436 C73.45974459 76.82271941 73.46858254 74.77899954 73.48405075 72.73534012 C73.50367459 69.8747914 73.49788676 67.01535222 73.48583984 64.15478516 C73.49707886 63.31302231 73.50831787 62.47125946 73.51989746 61.60398865 C73.46282785 56.26380076 72.54527037 53.23343429 69 49 C66.78356123 47.22853877 64.68972534 45.69765321 62.3125 44.1875 C61.65604492 43.76299561 60.99958984 43.33849121 60.32324219 42.90112305 C26.2715462 21.2592535 -12.85646097 12.78421677 -52.875 12.75 C-53.59377319 12.74932526 -54.31254639 12.74865051 -55.05310059 12.74795532 C-95.56229659 12.80787354 -141.86890968 23.4440349 -173 51 Z " fill="#2980B9" transform="translate(307,31)"/>
<path d="M0 0 C2.01590828 0.02682026 4.02625317 0.00017186 6.04199219 -0.03173828 C18.22757606 0.02906803 18.22757606 0.02906803 23.50097656 4.06445312 C28.68822749 9.49037101 29.6675048 15.37812486 29.51855469 22.65185547 C29.53402344 23.40724609 29.54949219 24.16263672 29.56542969 24.94091797 C29.51881179 31.72382268 27.43806663 37.02495679 22.83105469 42.02685547 C20.16121398 43.5694301 18.31628297 44.13561563 15.34277344 44.75341797 C14.53283936 44.92437988 13.72290527 45.0953418 12.88842773 45.27148438 C12.27136963 45.39700684 11.65431152 45.5225293 11.01855469 45.65185547 C11.02743713 46.94065613 11.03631958 48.22945679 11.04547119 49.55731201 C11.12676829 61.73849284 11.18662139 73.91961819 11.22580338 86.10100937 C11.24662483 92.36270254 11.2748431 98.62417564 11.3203125 104.88574219 C11.36396415 110.9352559 11.38773268 116.98455871 11.39806366 123.03421783 C11.4054204 125.33535326 11.41978594 127.63647792 11.44147491 129.93752289 C11.5974182 147.1769408 10.97417377 160.16182538 -0.98144531 173.65185547 C-10.26988584 182.80192072 -20.17903843 185.4880003 -32.98144531 186.65185547 C-32.98144531 151.34185547 -32.98144531 116.03185547 -32.98144531 79.65185547 C-27.39768639 79.65185547 -24.41725213 79.8519027 -19.35644531 81.46435547 C-18.27105469 81.80080078 -17.18566406 82.13724609 -16.06738281 82.48388672 C-12.98144531 83.65185547 -12.98144531 83.65185547 -7.98144531 86.65185547 C-7.65144531 73.12185547 -7.32144531 59.59185547 -6.98144531 45.65185547 C-9.95144531 44.99185547 -12.92144531 44.33185547 -15.98144531 43.65185547 C-20.8686122 40.82815905 -23.04398381 36.81061836 -24.98144531 31.65185547 C-25.50997592 28.62642728 -25.54420683 25.71670946 -25.48144531 22.65185547 C-25.49691406 21.89646484 -25.51238281 21.14107422 -25.52832031 20.36279297 C-25.48402309 13.91754712 -23.98389776 8.79245165 -19.46386719 4.06445312 C-13.66288638 -0.37465433 -7.04324561 -0.11149804 0 0 Z " fill="#EEC219" transform="translate(456.9814453125,-0.65185546875)"/>
<path d="M0 0 C2.02639181 0.03442839 4.04843519 0.0205956 6.07495117 0.0012207 C13.15583608 0.05408943 18.32020554 0.11466993 23.96362305 4.59692383 C28.49542046 10.44055734 29.18859927 15.0666298 29.27612305 22.28442383 C29.30512695 23.06237305 29.33413086 23.84032227 29.36401367 24.6418457 C29.43947549 31.6017469 27.51293008 36.82910476 22.77612305 41.97192383 C19.96362305 43.59692383 19.96362305 43.59692383 10.96362305 45.59692383 C11.45862305 65.89192383 11.45862305 65.89192383 11.96362305 86.59692383 C15.26362305 84.94692383 18.56362305 83.29692383 21.96362305 81.59692383 C27.46230255 79.87345712 31.04543525 79.59692383 36.96362305 79.59692383 C36.96362305 114.90692383 36.96362305 150.21692383 36.96362305 186.59692383 C22.85999376 185.31477571 12.29543863 181.86972109 2.7722168 171.12426758 C-8.13050055 157.16959252 -7.58686748 143.41688709 -7.42700195 126.45629883 C-7.41953065 124.11932868 -7.41384193 121.78235222 -7.40985107 119.44537354 C-7.39466491 113.32971541 -7.35544392 107.21444441 -7.31103516 101.09893799 C-7.26993048 94.8444136 -7.25180772 88.58982595 -7.23168945 82.33520508 C-7.18894259 70.08894234 -7.12077698 57.84296543 -7.03637695 45.59692383 C-7.65343506 45.47140137 -8.27049316 45.34587891 -8.90625 45.21655273 C-9.71618408 45.04559082 -10.52611816 44.87462891 -11.3605957 44.69848633 C-12.56462036 44.44832764 -12.56462036 44.44832764 -13.79296875 44.19311523 C-17.67896273 43.1604025 -19.94367737 41.29612524 -22.10742188 37.93139648 C-24.9195273 32.71071646 -25.65695594 28.4851976 -25.53637695 22.59692383 C-25.5518457 21.8415332 -25.56731445 21.08614258 -25.58325195 20.30786133 C-25.53893436 13.85965146 -24.03505158 8.74246443 -19.52099609 4.00732422 C-13.70432685 -0.45357406 -7.06067919 -0.13286455 0 0 Z " fill="#EEC219" transform="translate(51.036376953125,-0.596923828125)"/>
<path d="M0 0 C0.84094711 -0.0071553 1.68189423 -0.01431061 2.54832458 -0.02168274 C3.46782394 -0.02437164 4.3873233 -0.02706055 5.33468628 -0.02983093 C6.79132439 -0.03968773 6.79132439 -0.03968773 8.27738953 -0.04974365 C11.4968473 -0.06948159 14.71625835 -0.08114184 17.9357605 -0.09111023 C19.03606472 -0.09518576 20.13636894 -0.09926128 21.27001572 -0.10346031 C27.09642092 -0.1243255 32.92280256 -0.13862397 38.74923706 -0.147995 C44.75812825 -0.15904616 50.76664777 -0.1934302 56.77540779 -0.23316669 C61.4029406 -0.2593567 66.03038529 -0.26768909 70.65798569 -0.27127647 C72.87227761 -0.27613807 75.08656571 -0.28773981 77.30078506 -0.30631447 C80.40743364 -0.33075066 83.51312659 -0.32973215 86.61984253 -0.32279968 C87.5271965 -0.33560974 88.43455048 -0.3484198 89.36940002 -0.36161804 C97.09553236 -0.29908048 102.74885589 2.04946479 109.115448 6.33467102 C115.02529751 12.3788353 117.17931426 17.21001925 117.365448 25.77217102 C117.01734782 34.72459344 114.89254291 39.7174078 108.83810425 46.35029602 C102.39185224 52.22212953 95.20326128 53.2976082 86.76339722 53.30830383 C85.83131943 53.31326874 84.89924164 53.31823364 83.93891907 53.323349 C80.84931706 53.3379758 77.75976647 53.3447748 74.6701355 53.35029602 C72.52121988 53.35604867 70.37230427 53.36180639 68.22338867 53.36756897 C63.71247112 53.37808154 59.20157139 53.383922 54.69064331 53.3874054 C48.92395248 53.39287943 43.15749905 53.41688314 37.39088249 53.44537735 C32.94864222 53.46405023 28.50645848 53.46921189 24.06418228 53.47074127 C21.93921745 53.47375968 19.81425343 53.48176068 17.68932724 53.49492645 C14.70732641 53.51207803 11.7258968 53.51008401 8.74386597 53.50361633 C7.43893944 53.51743851 7.43893944 53.51743851 6.10765076 53.53153992 C-2.92568697 53.47050199 -9.82987455 51.21318721 -16.41189575 44.97138977 C-21.53086664 39.55062015 -23.76197887 34.17096089 -24.447052 26.77217102 C-23.7496409 18.68220219 -20.83460415 11.98717981 -15.134552 6.14717102 C-10.42451784 2.55220176 -6.02854453 0.0352745 0 0 Z " fill="#F0D35B" transform="translate(209.13455200195313,317.8528289794922)"/>
<path d="M0 0 C5.90410675 -0.07481809 11.80793032 -0.12891456 17.71240234 -0.16479492 C19.71603205 -0.17977142 21.71962961 -0.20015981 23.72314453 -0.22631836 C40.64973536 -0.4415942 56.67088148 0.03060032 69.8125 12.25 C75.7228401 18.76544635 79.12691685 25.85327917 81.81640625 34.140625 C82.07354401 34.92377579 82.33068176 35.70692657 82.59561157 36.5138092 C85.24150739 44.63386975 87.74791312 52.79440534 90.15234375 60.98901367 C90.63838163 62.6357954 91.13101488 64.28064343 91.62988281 65.92358398 C98.71027512 89.25168588 98.71027512 89.25168588 94.0625 98.3125 C90.93754548 103.91956125 86.12377607 107.69480486 79.98828125 109.63671875 C73.32674239 110.8538565 66.93973877 110.38201452 61 107 C50.19499847 99.26009074 48.42831464 83.9247523 45.17578125 71.8515625 C42.70635179 63.15444839 39.78314544 55.30883236 32.0625 50.0625 C24.08548081 45.70731691 15.91802848 45.47002092 7 45 C6.91363281 43.71609375 6.82726562 42.4321875 6.73828125 41.109375 C5.81124535 28.97583898 3.79418478 17.65007418 0.42724609 5.95678711 C0 4 0 4 0 0 Z " fill="#BBC2C6" transform="translate(381,273)"/>
<path d="M0 0 C0.94735519 0.00141495 1.89471039 0.0028299 2.87077332 0.00428772 C5.8865377 0.00987014 8.90222693 0.02241943 11.91796875 0.03515625 C13.9667958 0.04017352 16.01562402 0.04473603 18.06445312 0.04882812 C23.07815381 0.05983382 28.09179855 0.07708637 33.10546875 0.09765625 C32.90703369 0.82355957 32.70859863 1.54946289 32.50415039 2.29736328 C31.95904489 4.29336985 31.41489185 6.28963672 30.87158203 8.28613281 C30.32711108 10.28426139 29.77831814 12.28121446 29.2265625 14.27734375 C26.6584481 24.40305195 25.92576753 34.71358676 25.10546875 45.09765625 C23.97109375 45.195625 22.83671875 45.29359375 21.66796875 45.39453125 C8.03772984 46.60495963 8.03772984 46.60495963 -3.08203125 54.03515625 C-8.24304772 60.69453234 -10.32490655 69.01494487 -12.5859375 76.99609375 C-12.88508057 78.04998291 -13.18422363 79.10387207 -13.49243164 80.18969727 C-14.08235831 82.29571153 -14.65894546 84.40551983 -15.22045898 86.51928711 C-17.72427845 95.57823992 -21.04627676 102.65192865 -28.89453125 108.09765625 C-34.79508402 110.91382916 -41.33697861 111.22247069 -47.55078125 109.2578125 C-53.68634088 106.51344321 -57.57917172 102.94541218 -60.89453125 97.09765625 C-63.96564989 87.88430032 -61.54846077 78.00672539 -58.7890625 69.0234375 C-58.46798019 67.93355026 -58.14689789 66.84366302 -57.81608582 65.7207489 C-57.1392745 63.43690075 -56.45397458 61.15555216 -55.76049805 58.87670898 C-54.70816754 55.41389533 -53.6850974 51.9434297 -52.66601562 48.47070312 C-52.00040232 46.23777248 -51.33313994 44.0053326 -50.6640625 41.7734375 C-50.21061211 40.23868523 -50.21061211 40.23868523 -49.7480011 38.67292786 C-45.4651042 24.70269554 -38.88311661 13.15134369 -26.16015625 5.27734375 C-22.54118468 3.39298269 -18.8436347 2.0993449 -14.89453125 1.09765625 C-14.22945557 0.92347168 -13.56437988 0.74928711 -12.87915039 0.56982422 C-8.58145753 -0.11007255 -4.34405623 -0.02451 0 0 Z " fill="#BBC2C6" transform="translate(98.89453125,272.90234375)"/>
<path d="M0 0 C0.66 0 1.32 0 2 0 C5.39214372 12.99245427 8.36333251 25.95656546 10.3125 39.25 C10.47137695 40.32999268 10.63025391 41.40998535 10.79394531 42.52270508 C12.40340945 54.04275416 13.19900926 65.55848214 13.3125 77.1875 C13.34150391 78.18974609 13.37050781 79.19199219 13.40039062 80.22460938 C13.47389317 88.92617952 11.72478066 96.32482969 5.75 102.875 C-1.57328628 109.38287835 -7.49672108 110.68288396 -17.37109375 110.37890625 C-24.75964165 109.60744323 -30.43358605 106.74329022 -35.3894043 101.16137695 C-41.81958549 92.53224339 -41.78226721 81.67457104 -42.1875 71.375 C-42.28893265 69.19238235 -42.39520674 67.0100648 -42.5037384 64.82778931 C-42.57089183 63.43042986 -42.63196111 62.03276309 -42.68656921 60.63485718 C-42.84136484 56.9419443 -43.2462131 53.43883664 -43.9375 49.8125 C-44 46 -44 46 -41.45703125 43.1015625 C-40.26267159 42.24667363 -39.04594459 41.42246123 -37.8125 40.625 C-36.50628049 39.68883764 -35.20294187 38.74864402 -33.90234375 37.8046875 C-32.91403564 37.10424316 -32.91403564 37.10424316 -31.90576172 36.38964844 C-19.35104091 27.23496347 -9.12020309 14.66142508 -1.0859375 1.44140625 C-0.72757812 0.96574219 -0.36921875 0.49007813 0 0 Z " fill="#BBC2C6" transform="translate(367,402)"/>
<path d="M0 0 C3.87699794 1.29233265 4.3201442 2.74053582 6.4375 6.1875 C14.2981634 18.29522512 24.69320875 31.8106945 37.42578125 38.91015625 C41.0611586 41.01926214 43.48145583 42.6191282 46 46 C46.97421638 51.70672437 45.44363263 57.56476385 44.42382812 63.1796875 C43.56774128 68.87641288 43.60923419 74.64977766 43.52075195 80.40112305 C43.22847435 90.01750599 40.97575116 97.05367602 34.21484375 104.046875 C27.3616031 110.09029709 20.50629455 110.65697566 11.52734375 110.37890625 C4.36009889 109.60900287 -0.52957539 106.40110531 -5.35498047 101.11767578 C-10.80481068 94.10196975 -11.60416606 86.28830018 -11.375 77.6875 C-11.35920898 76.64207031 -11.34341797 75.59664063 -11.32714844 74.51953125 C-10.78349262 49.22039273 -6.58501861 24.3969542 0 0 Z " fill="#BBC1C6" transform="translate(143,402)"/>
<path d="M0 0 C2.01590828 0.02682026 4.02625317 0.00017186 6.04199219 -0.03173828 C18.22757606 0.02906803 18.22757606 0.02906803 23.50097656 4.06445312 C28.68822749 9.49037101 29.6675048 15.37812486 29.51855469 22.65185547 C29.53402344 23.40724609 29.54949219 24.16263672 29.56542969 24.94091797 C29.51881179 31.72382268 27.43806663 37.02495679 22.83105469 42.02685547 C20.01855469 43.65185547 20.01855469 43.65185547 11.01855469 45.65185547 C11.01855469 69.08185547 11.01855469 92.51185547 11.01855469 116.65185547 C9.54531043 113.70536695 8.42388493 111.03515899 7.33105469 107.96435547 C4.78429816 101.52144157 0.92484579 95.91358409 -4.56835938 91.63867188 C-8.00058671 87.39040505 -7.61931865 84.05994774 -7.46972656 78.75732422 C-7.46265182 77.80996902 -7.45557709 76.86261383 -7.44828796 75.8865509 C-7.42036865 72.87000525 -7.35763446 69.85533707 -7.29394531 66.83935547 C-7.26885927 64.79055421 -7.24604664 62.74172376 -7.22558594 60.69287109 C-7.1705499 55.67847926 -7.08429387 50.66548533 -6.98144531 45.65185547 C-7.59850342 45.52633301 -8.21556152 45.40081055 -8.85131836 45.27148438 C-9.66125244 45.10052246 -10.47118652 44.92956055 -11.30566406 44.75341797 C-12.50968872 44.50325928 -12.50968872 44.50325928 -13.73803711 44.24804688 C-17.62403109 43.21533414 -19.88874573 41.35105688 -22.05249023 37.98632812 C-24.86459566 32.7656481 -25.6020243 28.54012924 -25.48144531 22.65185547 C-25.49691406 21.89646484 -25.51238281 21.14107422 -25.52832031 20.36279297 C-25.48402309 13.91754712 -23.98389776 8.79245165 -19.46386719 4.06445312 C-13.66288638 -0.37465433 -7.04324561 -0.11149804 0 0 Z " fill="#7E8B8C" transform="translate(456.9814453125,-0.65185546875)"/>
<path d="M0 0 C2.02639181 0.03442839 4.04843519 0.0205956 6.07495117 0.0012207 C13.15583608 0.05408943 18.32020554 0.11466993 23.96362305 4.59692383 C28.49542046 10.44055734 29.18859927 15.0666298 29.27612305 22.28442383 C29.30512695 23.06237305 29.33413086 23.84032227 29.36401367 24.6418457 C29.43947549 31.6017469 27.51293008 36.82910476 22.77612305 41.97192383 C20.10628234 43.51449846 18.26135133 44.08068399 15.2878418 44.69848633 C14.47790771 44.86944824 13.66797363 45.04041016 12.83349609 45.21655273 C12.21643799 45.3420752 11.59937988 45.46759766 10.96362305 45.59692383 C11.00551758 46.85762695 11.04741211 48.11833008 11.09057617 49.41723633 C11.23601396 54.12070802 11.32744413 58.82398367 11.40307617 63.52905273 C11.4431648 65.56031782 11.49765359 67.59135411 11.56713867 69.62182617 C12.1314765 86.54366201 12.1314765 86.54366201 9.26367188 91.58569336 C7.26911682 93.54013267 5.28305822 95.05522552 2.96362305 96.59692383 C-1.66415357 102.68849619 -4.24314048 109.20375593 -6.03637695 116.59692383 C-6.36637695 116.59692383 -6.69637695 116.59692383 -7.03637695 116.59692383 C-7.03637695 93.16692383 -7.03637695 69.73692383 -7.03637695 45.59692383 C-10.00637695 44.93692383 -12.97637695 44.27692383 -16.03637695 43.59692383 C-20.92354384 40.77322741 -23.09891545 36.75568672 -25.03637695 31.59692383 C-25.56490756 28.57149564 -25.59913847 25.66177782 -25.53637695 22.59692383 C-25.5518457 21.8415332 -25.56731445 21.08614258 -25.58325195 20.30786133 C-25.53893436 13.85965146 -24.03505158 8.74246443 -19.52099609 4.00732422 C-13.70432685 -0.45357406 -7.06067919 -0.13286455 0 0 Z " fill="#7E8B8C" transform="translate(51.036376953125,-0.596923828125)"/>
<path d="M0 0 C5.94 0 11.88 0 18 0 C18 32.01 18 64.02 18 97 C12.06 97 6.12 97 0 97 C0 64.99 0 32.98 0 0 Z " fill="#285681" transform="translate(247,371)"/>
<path d="M0 0 C8.06761415 5.34615511 12.95924532 12.87773597 16 22 C17.03409684 32.37051406 17.03409684 32.37051406 13.9375 37.25 C10.20745653 39.47215356 8.27356156 39.76313599 4 39 C0.89906443 36.93270962 -0.66149498 35.30411229 -1.609375 31.65234375 C-1.91347911 29.91423149 -2.20894617 28.17458766 -2.49609375 26.43359375 C-3.37858854 22.17162279 -5.18943089 19.3411623 -8.6875 16.75 C-13.92084916 13.71128113 -19.04555739 13.03928321 -25 14 C-30.50211235 16.49152257 -33.58888788 20.57730723 -36 26 C-36.60545295 28.60306205 -37.04343616 31.14614837 -37.34765625 33.80078125 C-38.2112344 36.71212556 -39.40118079 37.50756215 -42 39 C-46.2098183 39.61233721 -48.26585371 39.43736375 -51.9375 37.25 C-55.09673054 32.27181855 -54.78279864 27.73564612 -54 22 C-51.267549 12.2303428 -44.5940364 4.1963941 -36 -1 C-24.09205932 -7.57694151 -11.7923214 -6.27088427 0 0 Z " fill="#46515E" transform="translate(328,102)"/>
<path d="M0 0 C7.64504801 5.30403479 14.03691398 12.719957 16 22 C17.04519028 32.35303349 17.04519028 32.35303349 13.9375 37.25 C10.20745653 39.47215356 8.27356156 39.76313599 4 39 C0.89906443 36.93270962 -0.66149498 35.30411229 -1.609375 31.65234375 C-1.91340425 29.91465935 -2.20624351 28.17498273 -2.48828125 26.43359375 C-3.49764093 21.63335651 -6.07694108 18.83514855 -9.625 15.625 C-14.73981394 13.16231181 -19.56575269 13.15284222 -25.05859375 14.5078125 C-30.15252306 16.41392798 -32.74913277 19.49826554 -35.125 24.25 C-35.91218931 26.72402356 -36.39712337 29.07907105 -36.875 31.625 C-37.49147827 34.45327053 -37.83060051 35.79295618 -39.6875 38.0625 C-43.06368685 39.4312244 -45.39043667 39.50660538 -49 39 C-51.9375 37.25 -51.9375 37.25 -54 34 C-55.63121716 24.15546138 -52.75842329 16.7741282 -47.25 8.8125 C-35.20400064 -6.3353442 -16.81587949 -8.99605989 0 0 Z " fill="#46515E" transform="translate(222,102)"/>
<path d="M0 0 C20.79 0 41.58 0 63 0 C63 10 63 10 61 18 C41.2 18 21.4 18 1 18 C0.67 12.06 0.34 6.12 0 0 Z " fill="#295781" transform="translate(325,335)"/>
<path d="M0 0 C20.79 0 41.58 0 63 0 C62.67 4.29 62.34 8.58 62 13 C62 14.65 62 16.3 62 18 C42.2 18 22.4 18 2 18 C0 10 0 10 0 0 Z " fill="#295782" transform="translate(124,335)"/>
<path d="M0 0 C5.94 0 11.88 0 18 0 C18 23.76 18 47.52 18 72 C16.52675574 69.05351148 15.40533024 66.38330352 14.3125 63.3125 C11.76880558 56.87733276 7.91567941 51.25362537 2.41308594 47.00048828 C-1.04709611 42.69801586 -0.63602223 39.24895222 -0.48828125 33.88671875 C-0.48120651 32.91716751 -0.47413177 31.94761627 -0.46684265 30.94868469 C-0.43891874 27.86082863 -0.37618303 24.77480525 -0.3125 21.6875 C-0.28741458 19.59052103 -0.26460184 17.49351356 -0.24414062 15.39648438 C-0.18909838 10.26361991 -0.10283859 5.13212036 0 0 Z " fill="#464F5C" transform="translate(450,44)"/>
<path d="M0 0 C5.94 0 11.88 0 18 0 C18.19858915 6.11960107 18.3433151 12.23730562 18.43945312 18.359375 C18.47954799 20.43913463 18.53404133 22.51867067 18.60351562 24.59765625 C19.16782644 41.92531767 19.16782644 41.92531767 16.30004883 47.02001953 C14.30530513 48.97464369 12.32876324 50.47284766 10 52 C5.37222339 58.09157236 2.79323647 64.6068321 1 72 C0.67 72 0.34 72 0 72 C0 48.24 0 24.48 0 0 Z " fill="#464F5C" transform="translate(44,44)"/>
<path d="M0 0 C3.88885033 1.29628344 6.18604754 4.11199616 9 7 C12.11888678 8.55944339 14.5454145 8.28316275 18 8 C21.64450308 6.53460605 24.39111463 4.68499604 27 1.75 C29 0 29 0 32.4375 -0.5625 C36 0 36 0 38.9375 2 C41.09662268 5.14054208 41.749798 7.19032807 41.4765625 11.015625 C40.2255998 16.22455164 36.24771039 18.99059723 32 21.75 C24.10966075 26.52238261 16.02894152 27.16949318 7 26 C0.24545118 23.85935385 -7.60028971 19.44155634 -11 13 C-11.63353258 8.01093093 -11.79987296 6.12923242 -8.875 2 C-5.50172663 -0.34662495 -4.02250703 -0.59909679 0 0 Z " fill="#46515E" transform="translate(241,159)"/>
<path d="M0 0 C5.94 0 11.88 0 18 0 C18 17.49 18 34.98 18 53 C12.06 53 6.12 53 0 53 C0 35.51 0 18.02 0 0 Z " fill="#295781" transform="translate(247,265)"/>
</svg>
